<svg width="268" height="65" viewBox="0 0 268 65" fill="none" xmlns="http://www.w3.org/2000/svg">
<path fill-rule="evenodd" clip-rule="evenodd" d="M37.4913 5.64232C37.7643 3.20288 36.0349 1.0001 33.5955 0.72703C31.156 0.435753 28.9532 2.18341 28.6802 4.62285C28.3525 7.40818 28.8076 10.7397 29.3902 14.1622C31.0104 14.6537 32.576 15.3637 34.0324 16.2011C35.598 12.5055 37.1272 8.84636 37.4913 5.64232ZM54.622 16.3467C53.6571 14.0893 51.0356 13.0699 48.7782 14.0347C45.8109 15.3273 42.7343 17.8577 39.6394 20.461C40.8045 21.6079 41.8968 22.9005 42.8253 24.3022C46.3388 23.8653 49.7067 23.3374 52.31 22.2087C54.5674 21.2074 55.605 18.5859 54.622 16.3467ZM47.1398 4.4408C45.1737 2.98442 42.3884 3.38493 40.932 5.35104C38.711 8.33663 37.2182 12.7968 35.598 17.1477C36.1441 17.5118 36.6539 17.8759 37.1454 18.2582C37.5095 18.5495 37.8918 18.859 38.2741 19.1685C41.9879 16.3649 45.8473 13.6342 48.0683 10.6486C49.5246 8.68252 49.1059 5.89719 47.1398 4.4408Z" fill="white"/>
<path d="M38.6924 40.0858C37.327 41.5604 35.8706 42.9257 34.3232 44.2547C32.1568 46.1298 29.9541 47.9502 27.7149 49.6979C25.3118 48.2233 23.5824 47.4769 23.2911 47.8592C23.0363 48.2051 24.0375 49.4794 25.8398 51.1361C19.7958 55.6327 13.4059 59.6013 6.54272 62.86C5.46864 63.3697 4.33994 63.7338 3.22945 64.1343C2.93817 64.2435 2.62869 64.2435 2.50126 64.2617C0.7536 64.462 0.225661 63.9886 0.29848 62.3866C0.516938 57.3985 2.06434 52.7199 3.66636 48.0595C4.10328 46.7851 4.5584 45.5108 5.03172 44.2365C7.45296 45.711 9.18241 46.4757 9.47369 46.0933C9.78317 45.6746 8.32679 43.9998 5.88735 41.9062C7.63501 37.3915 9.58292 32.9495 11.8767 28.6896C16.4643 32.0939 20.5422 34.3331 20.9973 33.7141C21.4524 33.0951 18.0846 29.8001 13.4423 26.3594L13.2421 26.2137C14.0431 24.8484 14.8805 23.483 15.7725 22.1541C16.883 20.4792 18.2484 18.95 19.5955 17.4572C21.3978 15.4729 23.728 14.7993 26.3313 15.3819C34.6691 17.2388 40.4582 22.0266 43.1889 30.237C43.7351 31.9118 43.2436 33.5503 42.3879 35.0613C41.8054 36.0807 41.1682 37.0456 40.4582 37.9558C36.0527 34.7336 32.2297 32.6582 31.7928 33.2408C31.374 33.8233 34.4142 36.8271 38.6924 40.0858Z" fill="white"/>
<path d="M92.3967 10.4026C86.6258 10.4026 82.8756 12.7146 80.6 17.1019H80.4726V14.3712C80.4726 12.4051 78.8705 10.8213 76.9044 10.8213C74.9383 10.8213 73.3545 12.4051 73.3545 14.3712V44.573C73.3545 46.5391 74.9383 48.1411 76.9044 48.1411H77.2503C79.2164 48.1411 80.8184 46.5391 80.8184 44.573V26.5866C80.8184 20.7065 84.1863 16.7925 89.8116 16.7925C95.273 16.7925 97.8945 19.9601 97.8945 25.6218V44.573C97.8945 46.5391 99.4784 48.1411 101.444 48.1411H101.79C103.756 48.1411 105.34 46.5391 105.34 44.573V24.22C105.34 15.6274 100.643 10.4026 92.3967 10.4026Z" fill="white"/>
<path d="M128.37 10.3298C117.938 10.3298 111.13 17.9394 111.13 29.6087C111.13 41.2962 117.866 48.5781 128.679 48.5781C135.379 48.5781 140.913 45.6107 143.407 40.9867C144.335 39.2936 143.061 37.2001 141.131 37.2001H139.238C138.291 37.2001 137.472 37.7462 136.981 38.5654C135.542 41.0413 132.52 42.5341 128.825 42.5341C122.708 42.5341 118.648 38.2742 118.648 31.8115V31.3746H142.497C143.917 31.3746 145.082 30.2095 145.082 28.7895V28.7531C145.082 17.4479 138.619 10.3298 128.37 10.3298ZM118.685 26.077C119.104 20.3425 122.981 16.4102 128.352 16.4102C133.777 16.4102 137.454 20.2696 137.618 26.077H118.685Z" fill="white"/>
<path d="M179.798 35.5981H177.814C176.74 35.5981 175.811 36.2716 175.411 37.2729C174.118 40.568 171.169 42.3338 166.982 42.3338C160.993 42.3338 156.951 37.5096 156.951 29.4813C156.951 21.635 160.938 16.6287 166.946 16.6287C171.278 16.6287 174.173 18.7769 175.356 21.8353C175.757 22.8547 176.685 23.5647 177.796 23.5647H179.78C181.509 23.5647 182.802 21.8717 182.238 20.2332C180.326 14.608 174.865 10.3298 166.873 10.3298C156.332 10.3298 149.378 17.8666 149.378 29.4813C149.378 41.2962 156.35 48.5781 166.946 48.5781C174.537 48.5781 180.18 44.8643 182.256 38.9842C182.838 37.3275 181.564 35.5981 179.798 35.5981Z" fill="white"/>
<path d="M202.153 42.2792C202.025 42.261 201.88 42.2428 201.752 42.2428C199.295 41.9515 198.148 40.4223 198.148 37.546V16.7015H202.353C203.992 16.7015 205.302 15.3726 205.302 13.7523C205.302 12.1321 203.992 10.8214 202.353 10.8214H198.148V6.14273C198.148 5.12326 197.729 4.19482 197.056 3.52124C196.382 2.84766 195.472 2.42896 194.434 2.42896C192.395 2.42896 190.739 4.10379 190.739 6.14273V10.8214H188.518C186.897 10.8214 185.568 12.1321 185.568 13.7523C185.568 15.3726 186.897 16.7015 188.518 16.7015H190.739V38.3106C190.739 45.5197 193.615 48.3778 201.079 48.3778C201.097 48.3778 201.115 48.3778 201.115 48.3778C201.971 48.3778 202.754 48.123 203.409 47.6678C203.427 47.6678 203.445 47.6496 203.445 47.6496C204.21 47.1035 204.72 46.2115 204.72 45.2102C204.72 43.7174 203.609 42.4613 202.153 42.2792Z" fill="white"/>
<path d="M226.366 10.3298C220.54 10.3298 215.734 12.6965 213.276 16.3556C212.876 16.9746 212.676 17.6482 212.676 18.3035C212.676 20.124 214.132 21.817 216.189 21.817C217.391 21.817 218.538 21.1799 219.102 20.124C220.303 17.8666 222.87 16.4831 226.165 16.4831C231.154 16.4831 233.993 18.8315 233.993 23.0914V23.5465C233.993 24.9119 232.938 26.0406 231.572 26.1134L223.926 26.5503C214.715 27.1328 209.672 30.9194 209.672 37.455C209.672 44.1179 214.824 48.5053 222.288 48.5053C227.367 48.5053 232.009 45.9748 234.066 41.9151H234.23V44.573C234.23 45.5561 234.631 46.4481 235.268 47.1035C235.923 47.7407 236.815 48.1412 237.798 48.1412C239.764 48.1412 241.348 46.5391 241.348 44.573V22.5452C241.348 15.1541 235.468 10.3298 226.366 10.3298ZM233.993 34.1235C233.993 39.0206 229.806 42.5705 224.272 42.5705C219.976 42.5705 217.19 40.5134 217.19 37.3093C217.19 34.0143 219.848 32.121 224.927 31.8115L233.993 31.1925V34.1235Z" fill="white"/>
<path d="M265.106 10.439C260.7 10.439 257.277 12.9512 256.094 17.1019H255.967V14.3712C255.967 12.4051 254.365 10.8213 252.417 10.8213C250.451 10.8213 248.849 12.4051 248.849 14.3712V44.4091C248.849 45.4286 249.267 46.3752 249.941 47.0488C250.615 47.7224 251.543 48.1411 252.581 48.1411C254.638 48.1411 256.313 46.4662 256.313 44.4091V25.8766C256.313 20.6154 259.407 17.2111 264.323 17.2111C264.523 17.2111 264.741 17.2111 264.942 17.2293C266.471 17.284 267.709 16.0278 267.709 14.4986V13.0605C267.709 11.6223 266.544 10.439 265.106 10.439Z" fill="white"/>
<path d="M204.721 45.2103C204.721 46.2116 204.211 47.1036 203.446 47.6497C203.446 47.6497 203.428 47.6679 203.41 47.6679C202.936 47.9956 202.372 48.1777 201.753 48.1777C200.097 48.1777 198.768 46.8487 198.768 45.2103C198.768 43.5719 200.097 42.2429 201.753 42.2429C201.881 42.2429 202.026 42.2611 202.154 42.2793C203.61 42.4614 204.721 43.7175 204.721 45.2103Z" fill="white"/>
</svg>
